<?xml version="1.0" encoding="utf-8"?>
<!-- Generator: Adobe Illustrator 24.2.3, SVG Export Plug-In . SVG Version: 6.00 Build 0)  -->
<svg version="1.1" id="Layer_1" xmlns="http://www.w3.org/2000/svg" xmlns:xlink="http://www.w3.org/1999/xlink" x="0px" y="0px"
	 viewBox="0 0 32 32" style="enable-background:new 0 0 32 32;" xml:space="preserve">
<g id="_x34__x5F_32">
	<g id="Group">
		<path id="Oval" d="M16,0c8.8,0,16,7.2,16,16s-7.2,16-16,16S0,24.8,0,16S7.2,0,16,0z M16,1.6C8,1.6,1.6,8,1.6,16S8,30.4,16,30.4
			S30.4,24,30.4,16S24,1.6,16,1.6z"/>
		<polygon id="Path-6" points="16.8,1.1 16.8,31 15.2,31 15.2,1.1 		"/>
		<polygon id="Path-7" points="31.1,15.3 31.1,16.9 1,16.9 1,15.3 		"/>
		<path id="Path-8" d="M16.6,0.4C28.1,10.5,28.2,21,17,31.3l-0.3,0.3l-1.1-1.2c10.8-9.7,10.9-19,0.3-28.5l-0.3-0.3L16.6,0.4z"/>
		<path id="Path-8_1_" d="M15.3,0.4C3.8,10.5,3.7,21,14.9,31.3l0.3,0.3l1.1-1.2C5.5,20.7,5.4,11.4,16,1.9l0.3-0.3L15.3,0.4z"/>
		<path id="Path-9" d="M25.7,4.2l1.1,1.1c-7,6.9-14,7-20.9,0.3L5.7,5.3l1.1-1.1c6.2,6.3,12.3,6.3,18.6,0.3L25.7,4.2z"/>
		<path id="Path-9_1_" d="M5.8,27.6l-1.1-1.2c7.3-6.9,14.7-7,21.8-0.3l0.3,0.3l-1.1,1.2c-6.5-6.3-13-6.4-19.6-0.3L5.8,27.6z"/>
	</g>
</g>
</svg>
